<svg width="145" height="145" viewBox="0 0 145 145" fill="none" xmlns="http://www.w3.org/2000/svg">
<rect width="145" height="145" fill="#212529"/>
<path d="M29.5711 93H42.2431C50.0671 93 56.0191 89.688 56.0191 82.536C56.0191 77.736 53.1871 75.048 49.3471 74.136V73.896C52.3711 72.84 54.1951 69.48 54.1951 66.216C54.1951 59.592 48.6271 57.432 41.3311 57.432H29.5711V93ZM36.6751 71.928V62.904H40.8991C45.1711 62.904 47.2831 64.152 47.2831 67.272C47.2831 70.104 45.3151 71.928 40.8031 71.928H36.6751ZM36.6751 87.528V77.16H41.6191C46.5151 77.16 49.1071 78.648 49.1071 82.104C49.1071 85.8 46.4671 87.528 41.6191 87.528H36.6751ZM62.243 93H69.347V79.56H74.291L81.587 93H89.507L81.203 78.456C85.283 76.872 87.971 73.56 87.971 68.232C87.971 60.072 82.067 57.432 74.627 57.432H62.243V93ZM69.347 73.944V63.096H73.955C78.515 63.096 81.059 64.392 81.059 68.232C81.059 72.024 78.515 73.944 73.955 73.944H69.347ZM104.82 93.672C113.028 93.672 117.876 88.728 117.876 82.92C117.876 77.784 115.044 75.048 110.724 73.272L106.068 71.304C103.044 70.104 100.548 69.192 100.548 66.648C100.548 64.296 102.516 62.904 105.636 62.904C108.564 62.904 110.916 63.96 113.172 65.832L116.772 61.368C113.892 58.44 109.764 56.808 105.636 56.808C98.4358 56.808 93.3478 61.272 93.3478 67.08C93.3478 72.264 96.9478 75.144 100.548 76.632L105.3 78.648C108.468 79.992 110.628 80.808 110.628 83.448C110.628 85.944 108.66 87.528 104.964 87.528C101.844 87.528 98.4838 85.944 95.9398 83.592L91.8598 88.488C95.3158 91.8 100.068 93.672 104.82 93.672Z" fill="white"/>
</svg>
