<svg width="96" height="96" viewBox="0 0 96 96" fill="none" xmlns="http://www.w3.org/2000/svg">
<rect width="96" height="96" fill="#212529"/>
<path d="M16.3033 64H25.8073C31.6753 64 36.1393 61.516 36.1393 56.152C36.1393 52.552 34.0153 50.536 31.1353 49.852V49.672C33.4033 48.88 34.7713 46.36 34.7713 43.912C34.7713 38.944 30.5953 37.324 25.1233 37.324H16.3033V64ZM21.6313 48.196V41.428H24.7993C28.0033 41.428 29.5873 42.364 29.5873 44.704C29.5873 46.828 28.1113 48.196 24.7273 48.196H21.6313ZM21.6313 59.896V52.12H25.3393C29.0113 52.12 30.9553 53.236 30.9553 55.828C30.9553 58.6 28.9753 59.896 25.3393 59.896H21.6313ZM40.8073 64H46.1353V53.92H49.8433L55.3153 64H61.2553L55.0273 53.092C58.0873 51.904 60.1033 49.42 60.1033 45.424C60.1033 39.304 55.6753 37.324 50.0953 37.324H40.8073V64ZM46.1353 49.708V41.572H49.5913C53.0113 41.572 54.9193 42.544 54.9193 45.424C54.9193 48.268 53.0113 49.708 49.5913 49.708H46.1353ZM72.7398 64.504C78.8958 64.504 82.5318 60.796 82.5318 56.44C82.5318 52.588 80.4078 50.536 77.1678 49.204L73.6758 47.728C71.4078 46.828 69.5358 46.144 69.5358 44.236C69.5358 42.472 71.0118 41.428 73.3518 41.428C75.5478 41.428 77.3118 42.22 79.0038 43.624L81.7038 40.276C79.5438 38.08 76.4478 36.856 73.3518 36.856C67.9518 36.856 64.1358 40.204 64.1358 44.56C64.1358 48.448 66.8358 50.608 69.5358 51.724L73.0998 53.236C75.4758 54.244 77.0958 54.856 77.0958 56.836C77.0958 58.708 75.6198 59.896 72.8478 59.896C70.5078 59.896 67.9878 58.708 66.0798 56.944L63.0198 60.616C65.6118 63.1 69.1758 64.504 72.7398 64.504Z" fill="white"/>
</svg>
