<svg width="145" height="145" viewBox="0 0 145 145" fill="none" xmlns="http://www.w3.org/2000/svg">
<rect width="145" height="145" fill="#212529"/>
<path d="M31.9688 88V53.875H43.125C46.8281 53.875 49.6094 54.6406 51.4688 56.1719C53.3438 57.7031 54.2812 59.9688 54.2812 62.9688C54.2812 64.5625 53.8281 65.9766 52.9219 67.2109C52.0156 68.4297 50.7812 69.375 49.2188 70.0469C51.0625 70.5625 52.5156 71.5469 53.5781 73C54.6562 74.4375 55.1953 76.1562 55.1953 78.1562C55.1953 81.2188 54.2031 83.625 52.2188 85.375C50.2344 87.125 47.4297 88 43.8047 88H31.9688ZM36.4688 72.0391V84.3203H43.8984C45.9922 84.3203 47.6406 83.7812 48.8438 82.7031C50.0625 81.6094 50.6719 80.1094 50.6719 78.2031C50.6719 74.0938 48.4375 72.0391 43.9688 72.0391H36.4688ZM36.4688 68.4297H43.2656C45.2344 68.4297 46.8047 67.9375 47.9766 66.9531C49.1641 65.9688 49.7578 64.6328 49.7578 62.9453C49.7578 61.0703 49.2109 59.7109 48.1172 58.8672C47.0234 58.0078 45.3594 57.5781 43.125 57.5781H36.4688V68.4297ZM74.3906 74.1953H66.375V88H61.8516V53.875H73.1484C76.9922 53.875 79.9453 54.75 82.0078 56.5C84.0859 58.25 85.125 60.7969 85.125 64.1406C85.125 66.2656 84.5469 68.1172 83.3906 69.6953C82.25 71.2734 80.6562 72.4531 78.6094 73.2344L86.625 87.7188V88H81.7969L74.3906 74.1953ZM66.375 70.5156H73.2891C75.5234 70.5156 77.2969 69.9375 78.6094 68.7812C79.9375 67.625 80.6016 66.0781 80.6016 64.1406C80.6016 62.0312 79.9688 60.4141 78.7031 59.2891C77.4531 58.1641 75.6406 57.5938 73.2656 57.5781H66.375V70.5156ZM101.508 72.7891C97.6484 71.6797 94.8359 70.3203 93.0703 68.7109C91.3203 67.0859 90.4453 65.0859 90.4453 62.7109C90.4453 60.0234 91.5156 57.8047 93.6562 56.0547C95.8125 54.2891 98.6094 53.4062 102.047 53.4062C104.391 53.4062 106.477 53.8594 108.305 54.7656C110.148 55.6719 111.57 56.9219 112.57 58.5156C113.586 60.1094 114.094 61.8516 114.094 63.7422H109.57C109.57 61.6797 108.914 60.0625 107.602 58.8906C106.289 57.7031 104.438 57.1094 102.047 57.1094C99.8281 57.1094 98.0938 57.6016 96.8438 58.5859C95.6094 59.5547 94.9922 60.9062 94.9922 62.6406C94.9922 64.0312 95.5781 65.2109 96.75 66.1797C97.9375 67.1328 99.9453 68.0078 102.773 68.8047C105.617 69.6016 107.836 70.4844 109.43 71.4531C111.039 72.4062 112.227 73.5234 112.992 74.8047C113.773 76.0859 114.164 77.5938 114.164 79.3281C114.164 82.0938 113.086 84.3125 110.93 85.9844C108.773 87.6406 105.891 88.4688 102.281 88.4688C99.9375 88.4688 97.75 88.0234 95.7188 87.1328C93.6875 86.2266 92.1172 84.9922 91.0078 83.4297C89.9141 81.8672 89.3672 80.0938 89.3672 78.1094H93.8906C93.8906 80.1719 94.6484 81.8047 96.1641 83.0078C97.6953 84.1953 99.7344 84.7891 102.281 84.7891C104.656 84.7891 106.477 84.3047 107.742 83.3359C109.008 82.3672 109.641 81.0469 109.641 79.375C109.641 77.7031 109.055 76.4141 107.883 75.5078C106.711 74.5859 104.586 73.6797 101.508 72.7891Z" fill="white"/>
</svg>
